# xmcd
#
# Track frame offsets:
# 150
# 12250
# 24625
# 37855
# 47706
# 63097
# 78120
# 93029
# 104267
# 116132
# 127685
# 137222
# 147314
# 163137
# 174987
# 187646
# 200425
# 215095
# 225475
# 237095
#
# Disc length: 3324 seconds
#
# Revision: 1
# Processed by: cddbd v1.5.1PL2 Copyright (c) Steve Scherf et al.
# Submitted via: CedeCatalogueitor 2.6.0.6 http://personales.ya.com/cdcatalogueitor
#
DISCID=fa0cfa14
DTITLE=Varias Cantantes De Funky - THE RETURN OF THE FUNKSOULSISTERS
DYEAR=2005
DGENRE=FUNKY
TTITLE0=LOVE ADDICT - Hony and The Bees
TTITLE1=EASILY PERSUADED - Martha And The Vandellas
TTITLE2=FAMILY TREE - Little Rose Little
TTITLE3=WHO TOLD YOU - (Miss) Jackie Moore
TTITLE4=THAT'S HOW I FEEL - The Sisters Of Righteous
TTITLE5=AIN'T NO LOVE LOST - Patti Jo
TTITLE6=THAT'S ALL A PART OF LOVING HIM - Tommie Young
TTITLE7=LOVE CONNECTION - Anette Snell
TTITLE8=GOTTA GET AWAY - Harolyn Montgomery
TTITLE9=DO YOU REALLY WANT TO RESCUE ME PT. 1 - Elsie Mae
TTITLE10=TWO HEADS ARE BETTER THAN ONE - Jeannie Dee
TTITLE11=HYPOCRISY - Millie Jackson
TTITLE12=JUST A MISTAKE - The Ebonettes
TTITLE13=GROUNDED PT. 1 - Gloria Taylor
TTITLE14=WOMEN LIBERATION - Tv Mama Jean
TTITLE15=IT'S MY THING - Betty Moorer
TTITLE16=SPEED TICKET - Inez and Charlie Foxx And Their Mokin' Band
TTITLE17=HE'S WHAT I NEED - Little Rose Little
TTITLE18=GET ON UP AND DO IT, BABY (TRY IT YOU'LL LIKE IT) - Marie Adams and The Three Tons Of Joy
TTITLE19=JESSE JOE (YOUU GOT TO DO) - Jean Knight
EXTD=
EXTT0=
EXTT1=
EXTT2=
EXTT3=
EXTT4=
EXTT5=
EXTT6=
EXTT7=
EXTT8=
EXTT9=
EXTT10=
EXTT11=
EXTT12=
EXTT13=
EXTT14=
EXTT15=
EXTT16=
EXTT17=
EXTT18=
EXTT19=
PLAYORDER=
